<?xml version="1.0" encoding="UTF-8" standalone="no"?>
<!DOCTYPE svg PUBLIC "-//W3C//DTD SVG 1.1//EN" "http://www.w3.org/Graphics/SVG/1.1/DTD/svg11.dtd">
<svg width="100%" height="100%" viewBox="0 0 3362 2124" version="1.1" xmlns="http://www.w3.org/2000/svg" xmlns:xlink="http://www.w3.org/1999/xlink" xml:space="preserve" xmlns:serif="http://www.serif.com/" style="fill-rule:evenodd;clip-rule:evenodd;stroke-linejoin:round;stroke-miterlimit:1.41421;">
    <g transform="matrix(1,0,0,1,-73.175,-184.283)">
        <g transform="matrix(4.16667,0,0,4.16667,0,0)">
            <g opacity="0.320007">
                <g transform="matrix(1,0,0,-1,0,595.281)">
                    <rect x="483.53" y="360.89" width="84.582" height="84.581" style="fill:rgb(163,161,161);"/>
                </g>
            </g>
        </g>
        <g transform="matrix(4.16667,0,0,4.16667,0,0)">
            <g opacity="0.320007">
                <g transform="matrix(1,0,0,-1,0.0002,595.28)">
                    <rect x="18.883" y="149.443" width="164.494" height="26.432" style="fill:rgb(163,161,161);"/>
                </g>
            </g>
        </g>
        <g transform="matrix(4.16667,0,0,4.16667,0,0)">
            <g opacity="0.320007">
                <g transform="matrix(1,0,0,-1,0,595.28)">
                    <rect x="183.377" y="149.443" width="26.3" height="253.736" style="fill:rgb(163,161,161);"/>
                </g>
            </g>
        </g>
        <g transform="matrix(4.16667,0,0,4.16667,0,0)">
            <g opacity="0.320007">
                <g transform="matrix(1,0,0,1,0,-184.778)">
                    <rect x="209.662" y="376.879" width="170.698" height="26.3" style="fill:rgb(163,161,161);"/>
                </g>
            </g>
        </g>
        <g transform="matrix(4.16667,0,0,4.16667,0,0)">
            <g opacity="0.320007">
                <g transform="matrix(-1,-0,-0,1,787.304,-103.892)">
                    <rect x="380.502" y="149.443" width="26.3" height="400.286" style="fill:rgb(163,161,161);"/>
                </g>
            </g>
        </g>
        <g transform="matrix(4.16667,0,0,4.16667,0,0)">
            <g opacity="0.320007">
                <g transform="matrix(1,0,0,-1,0,595.28)">
                    <rect x="406.802" y="523.43" width="213.47" height="26.3" style="fill:rgb(163,161,161);"/>
                </g>
            </g>
        </g>
        <g transform="matrix(4.16667,0,0,4.16667,0,0)">
            <g opacity="0.320007">
                <g transform="matrix(1,0,0,1,0,269.962)">
                    <rect x="647.894" y="149.443" width="164.494" height="26.432" style="fill:rgb(163,161,161);"/>
                </g>
            </g>
        </g>
        <g transform="matrix(4.16667,0,0,4.16667,0,0)">
            <g opacity="0.320007">
                <g transform="matrix(-1,-0,-0,1,1269.49,-103.894)">
                    <rect x="621.594" y="149.444" width="26.3" height="400.286" style="fill:rgb(163,161,161);"/>
                </g>
            </g>
        </g>
        <g transform="matrix(4.16667,0,0,4.16667,0,0)">
            <g transform="matrix(1,0,0,1,82.4147,490.468)">
                <path d="M0,7.408L0,3.701C0,-2.318 -1.788,-7.243 -5.363,-11.074C-8.939,-14.904 -14.07,-16.825 -20.757,-16.825L-36.497,-16.825C-43.185,-16.825 -48.317,-14.904 -51.892,-11.074C-55.468,-7.243 -57.254,-2.318 -57.254,3.701L-57.254,7.408L0,7.408ZM-60.881,30.711C-63.248,30.711 -64.43,29.529 -64.43,27.16L-64.43,3.701C-64.43,-4.166 -62.066,-10.635 -57.332,-15.704C-52.599,-20.769 -45.861,-23.303 -37.116,-23.303L-20.139,-23.303C-11.395,-23.303 -4.655,-20.769 0.077,-15.704C4.81,-10.635 7.177,-4.166 7.177,3.701L7.177,27.16C7.177,29.529 5.992,30.711 3.627,30.711C1.208,30.711 0,29.529 0,27.16L0,13.655L-57.254,13.655L-57.254,27.16C-57.254,29.529 -58.464,30.711 -60.881,30.711" style="fill:rgb(125,149,125);fill-rule:nonzero;"/>
            </g>
        </g>
        <g transform="matrix(4.16667,0,0,4.16667,0,0)">
            <g transform="matrix(1,0,0,1,128.019,514.7)">
                <path d="M0,-41.057C-6.688,-41.057 -11.819,-39.137 -15.394,-35.306C-18.971,-31.475 -20.757,-26.55 -20.757,-20.531C-20.757,-14.512 -18.971,-9.587 -15.394,-5.751C-11.819,-1.92 -6.688,-0.005 0,-0.005L27.624,-0.005C31.687,-0.005 33.72,-2.034 33.72,-6.102L33.72,-19.602C33.72,-21.971 34.903,-23.154 37.269,-23.154C39.686,-23.154 40.896,-21.971 40.896,-19.602L40.896,-4.791C40.896,-1.187 39.919,1.59 37.963,3.547C36.008,5.503 33.18,6.479 29.476,6.479L-0.694,6.479C-9.441,6.479 -16.179,3.944 -20.912,-1.125C-25.645,-6.19 -28.01,-12.658 -28.01,-20.531C-28.01,-28.399 -25.645,-34.867 -20.912,-39.937C-16.179,-45.001 -9.441,-47.536 -0.694,-47.536L37.579,-47.536C39.79,-47.536 40.896,-46.457 40.896,-44.294C40.896,-42.136 39.79,-41.057 37.579,-41.057L0,-41.057Z" style="fill:rgb(125,149,125);fill-rule:nonzero;"/>
            </g>
        </g>
        <g transform="matrix(4.16667,0,0,4.16667,0,0)">
            <g transform="matrix(1,0,0,1,180.642,517.632)">
                <path d="M0,-46.921C0,-49.285 1.208,-50.468 3.627,-50.468C5.992,-50.468 7.176,-49.285 7.176,-46.921L7.176,-0.005C7.176,2.365 5.992,3.547 3.627,3.547C1.208,3.547 0,2.365 0,-0.005L0,-46.921Z" style="fill:rgb(125,149,125);fill-rule:nonzero;"/>
            </g>
        </g>
        <g transform="matrix(4.16667,0,0,4.16667,0,0)">
            <g transform="matrix(1,0,0,1,264.363,490.468)">
                <path d="M0,7.408L0,3.701C0,-2.318 -1.788,-7.243 -5.363,-11.074C-8.939,-14.904 -14.07,-16.825 -20.757,-16.825L-36.497,-16.825C-43.185,-16.825 -48.317,-14.904 -51.892,-11.074C-55.468,-7.243 -57.254,-2.318 -57.254,3.701L-57.254,7.408L0,7.408ZM-60.881,30.711C-63.248,30.711 -64.43,29.529 -64.43,27.16L-64.43,3.701C-64.43,-4.166 -62.066,-10.635 -57.332,-15.704C-52.599,-20.769 -45.861,-23.303 -37.116,-23.303L-20.139,-23.303C-11.395,-23.303 -4.655,-20.769 0.077,-15.704C4.81,-10.635 7.177,-4.166 7.177,3.701L7.177,27.16C7.177,29.529 5.992,30.711 3.627,30.711C1.208,30.711 0,29.529 0,27.16L0,13.655L-57.254,13.655L-57.254,27.16C-57.254,29.529 -58.464,30.711 -60.881,30.711" style="fill:rgb(125,149,125);fill-rule:nonzero;"/>
            </g>
        </g>
        <g transform="matrix(4.16667,0,0,4.16667,0,0)">
            <g transform="matrix(1,0,0,1,297.235,490.932)">
                <path d="M0,6.479C-4.888,6.479 -8.656,5.064 -11.305,2.235C-13.954,-0.594 -15.278,-4.218 -15.278,-8.647C-15.278,-13.066 -13.954,-16.695 -11.305,-19.524C-8.656,-22.353 -4.888,-23.768 0,-23.768L48.535,-23.768C50.695,-23.768 51.777,-22.689 51.777,-20.526C51.777,-18.368 50.695,-17.289 48.535,-17.289L0.694,-17.289C-2.136,-17.289 -4.296,-16.489 -5.787,-14.894C-7.28,-13.298 -8.025,-11.218 -8.025,-8.647C-8.025,-6.071 -7.266,-3.99 -5.748,-2.395C-4.232,-0.8 -2.083,0 0.694,0L38.349,0C43.237,0 47.004,1.415 49.654,4.244C52.303,7.073 53.628,10.697 53.628,15.121C53.628,19.545 52.303,23.174 49.654,26.003C47.004,28.832 43.237,30.247 38.349,30.247L-11.96,30.247C-14.174,30.247 -15.278,29.163 -15.278,27.005C-15.278,24.842 -14.174,23.763 -11.96,23.763L37.655,23.763C40.484,23.763 42.645,22.968 44.138,21.373C45.628,19.777 46.374,17.697 46.374,15.121C46.374,12.55 45.616,10.464 44.099,8.869C42.58,7.279 40.434,6.479 37.655,6.479L0,6.479Z" style="fill:rgb(125,149,125);fill-rule:nonzero;"/>
            </g>
        </g>
        <g transform="matrix(4.16667,0,0,4.16667,0,0)">
            <g transform="matrix(1,0,0,1,362.128,517.632)">
                <path d="M0,-46.921C0,-49.285 1.208,-50.468 3.627,-50.468C5.992,-50.468 7.176,-49.285 7.176,-46.921L7.176,-0.005C7.176,2.365 5.992,3.547 3.627,3.547C1.208,3.547 0,2.365 0,-0.005L0,-46.921Z" style="fill:rgb(125,149,125);fill-rule:nonzero;"/>
            </g>
        </g>
        <g transform="matrix(4.16667,0,0,4.16667,0,0)">
            <g transform="matrix(1,0,0,1,463.904,468.708)">
                <path d="M0,50.927L-34.724,4.398C-35.393,3.577 -35.727,2.777 -35.727,2.002C-35.727,-0.362 -34.538,-1.544 -32.16,-1.544C-31.053,-1.544 -30.124,-0.997 -29.369,0.092L3.085,44.097L35.716,-0.145C36.499,-1.08 37.441,-1.544 38.538,-1.544C40.879,-1.544 42.051,-0.414 42.051,1.847C42.051,2.57 41.744,3.314 41.127,4.088L6.172,50.927C5.4,51.954 4.37,52.471 3.085,52.471C1.799,52.471 0.772,51.954 0,50.927" style="fill:rgb(125,149,125);fill-rule:nonzero;"/>
            </g>
        </g>
        <g transform="matrix(4.16667,0,0,4.16667,0,0)">
            <g transform="matrix(1,0,0,1,513.902,517.632)">
                <path d="M0,-46.921C0,-49.285 1.208,-50.468 3.629,-50.468C5.994,-50.468 7.176,-49.285 7.176,-46.921L7.176,-0.005C7.176,2.365 5.994,3.547 3.629,3.547C1.208,3.547 0,2.365 0,-0.005L0,-46.921Z" style="fill:rgb(125,149,125);fill-rule:nonzero;"/>
            </g>
        </g>
        <g transform="matrix(4.16667,0,0,4.16667,0,0)">
            <g transform="matrix(1,0,0,1,560.511,467.164)">
                <path d="M0,54.015C-8.748,54.015 -15.485,51.48 -20.219,46.411C-24.95,41.346 -27.317,34.878 -27.317,27.005L-27.317,3.547C-27.317,1.182 -26.135,0 -23.768,0C-21.349,0 -20.141,1.182 -20.141,3.547L-20.141,27.005C-20.141,33.024 -18.353,37.949 -14.778,41.785C-11.203,45.616 -6.071,47.531 0.617,47.531L32.947,47.531C35.159,47.531 36.266,48.61 36.266,50.773C36.266,52.931 35.159,54.015 32.947,54.015L0,54.015Z" style="fill:rgb(125,149,125);fill-rule:nonzero;"/>
            </g>
        </g>
        <g transform="matrix(4.16667,0,0,4.16667,0,0)">
            <g transform="matrix(1,0,0,1,630.034,467.164)">
                <path d="M0,54.015C-8.748,54.015 -15.485,51.48 -20.219,46.411C-24.95,41.346 -27.317,34.878 -27.317,27.005L-27.317,3.547C-27.317,1.182 -26.135,0 -23.768,0C-21.349,0 -20.141,1.182 -20.141,3.547L-20.141,27.005C-20.141,33.024 -18.353,37.949 -14.778,41.785C-11.203,45.616 -6.071,47.531 0.617,47.531L32.947,47.531C35.159,47.531 36.266,48.61 36.266,50.773C36.266,52.931 35.159,54.015 32.947,54.015L0,54.015Z" style="fill:rgb(125,149,125);fill-rule:nonzero;"/>
            </g>
        </g>
        <g transform="matrix(4.16667,0,0,4.16667,0,0)">
            <g transform="matrix(1,0,0,1,737.829,490.468)">
                <path d="M0,7.408L0,3.701C0,-2.318 -1.789,-7.243 -5.364,-11.074C-8.939,-14.904 -14.07,-16.825 -20.758,-16.825L-36.499,-16.825C-43.187,-16.825 -48.318,-14.904 -51.893,-11.074C-55.468,-7.243 -57.257,-2.318 -57.257,3.701L-57.257,7.408L0,7.408ZM-60.883,30.711C-63.25,30.711 -64.433,29.529 -64.433,27.16L-64.433,3.701C-64.433,-4.166 -62.066,-10.635 -57.334,-15.704C-52.6,-20.769 -45.863,-23.303 -37.115,-23.303L-20.141,-23.303C-11.396,-23.303 -4.656,-20.769 0.077,-15.704C4.809,-10.635 7.176,-4.166 7.176,3.701L7.176,27.16C7.176,29.529 5.991,30.711 3.627,30.711C1.208,30.711 0,29.529 0,27.16L0,13.655L-57.257,13.655L-57.257,27.16C-57.257,29.529 -58.465,30.711 -60.883,30.711" style="fill:rgb(125,149,125);fill-rule:nonzero;"/>
            </g>
        </g>
        <g transform="matrix(4.16667,0,0,4.16667,0,0)">
            <g transform="matrix(1,0,0,1,770.699,490.932)">
                <path d="M0,6.479C-4.886,6.479 -8.655,5.064 -11.303,2.235C-13.954,-0.594 -15.278,-4.218 -15.278,-8.647C-15.278,-13.066 -13.954,-16.695 -11.303,-19.524C-8.655,-22.353 -4.886,-23.768 0,-23.768L48.537,-23.768C50.698,-23.768 51.777,-22.689 51.777,-20.526C51.777,-18.368 50.698,-17.289 48.537,-17.289L0.694,-17.289C-2.135,-17.289 -4.295,-16.489 -5.787,-14.894C-7.279,-13.298 -8.025,-11.218 -8.025,-8.647C-8.025,-6.071 -7.266,-3.99 -5.748,-2.395C-4.231,-0.8 -2.083,0 0.694,0L38.352,0C43.238,0 47.007,1.415 49.655,4.244C52.303,7.073 53.63,10.697 53.63,15.121C53.63,19.545 52.303,23.174 49.655,26.003C47.007,28.832 43.238,30.247 38.352,30.247L-11.959,30.247C-14.171,30.247 -15.278,29.163 -15.278,27.005C-15.278,24.842 -14.171,23.763 -11.959,23.763L37.658,23.763C40.484,23.763 42.645,22.968 44.139,21.373C45.631,19.777 46.377,17.697 46.377,15.121C46.377,12.55 45.616,10.464 44.1,8.869C42.583,7.279 40.435,6.479 37.658,6.479L0,6.479Z" style="fill:rgb(125,149,125);fill-rule:nonzero;"/>
            </g>
        </g>
        <g transform="matrix(4.16667,0,0,4.16667,0,0)">
            <g transform="matrix(1,0,0,1,680.626,551.307)">
                <path d="M0,-16.876L-18.43,-16.876L-18.43,-7.775L0,-7.775C1.479,-7.775 2.61,-8.2 3.392,-9.057C4.174,-9.912 4.566,-11.006 4.566,-12.338C4.566,-13.673 4.174,-14.759 3.392,-15.606C2.61,-16.453 1.479,-16.876 0,-16.876M-21.38,-18.081C-21.38,-19.055 -20.882,-19.54 -19.888,-19.54L0.253,-19.54C2.579,-19.54 4.37,-18.869 5.63,-17.526C6.887,-16.184 7.517,-14.455 7.517,-12.338C7.517,-10.227 6.887,-8.492 5.63,-7.14C4.37,-5.784 2.579,-5.108 0.253,-5.108L-18.43,-5.108L-18.43,1.203C-18.43,2.176 -18.915,2.664 -19.888,2.664C-20.882,2.664 -21.38,2.176 -21.38,1.203L-21.38,-18.081Z" style="fill:rgb(125,149,125);fill-rule:nonzero;"/>
            </g>
        </g>
        <g transform="matrix(4.16667,0,0,4.16667,0,0)">
            <g transform="matrix(1,0,0,1,718.116,541.349)">
                <path d="M0,3.04L0,1.517C0,-0.956 -0.736,-2.979 -2.204,-4.554C-3.676,-6.129 -5.785,-6.918 -8.534,-6.918L-15.002,-6.918C-17.751,-6.918 -19.863,-6.129 -21.331,-4.554C-22.8,-2.979 -23.536,-0.956 -23.536,1.517L-23.536,3.04L0,3.04ZM-25.025,12.622C-25.998,12.622 -26.486,12.134 -26.486,11.161L-26.486,1.517C-26.486,-1.715 -25.513,-4.376 -23.567,-6.459C-21.623,-8.539 -18.853,-9.582 -15.258,-9.582L-8.278,-9.582C-4.685,-9.582 -1.915,-8.539 0.031,-6.459C1.977,-4.376 2.95,-1.715 2.95,1.517L2.95,11.161C2.95,12.134 2.462,12.622 1.489,12.622C0.496,12.622 0,12.134 0,11.161L0,5.611L-23.536,5.611L-23.536,11.161C-23.536,12.134 -24.034,12.622 -25.025,12.622" style="fill:rgb(125,149,125);fill-rule:nonzero;"/>
            </g>
        </g>
        <g transform="matrix(4.16667,0,0,4.16667,0,0)">
            <g transform="matrix(1,0,0,1,747.994,551.307)">
                <path d="M0,-16.876L-18.998,-16.876L-18.998,-8.373L0,-8.373C1.396,-8.373 2.462,-8.771 3.203,-9.566C3.944,-10.356 4.313,-11.378 4.313,-12.627C4.313,-13.871 3.944,-14.894 3.203,-15.686C2.462,-16.478 1.396,-16.876 0,-16.876M4.313,1.203L4.313,-0.89C4.313,-2.349 3.89,-3.521 3.046,-4.409C2.199,-5.299 0.963,-5.743 -0.666,-5.743L-18.998,-5.743L-18.998,1.203C-18.998,2.176 -19.486,2.664 -20.459,2.664C-21.453,2.664 -21.948,2.176 -21.948,1.203L-21.948,-18.081C-21.948,-19.055 -21.453,-19.54 -20.459,-19.54L0.761,-19.54C2.855,-19.54 4.463,-18.941 5.583,-17.748C6.703,-16.553 7.264,-15.005 7.264,-13.102C7.264,-11.662 6.936,-10.41 6.28,-9.344C5.625,-8.275 4.675,-7.519 3.425,-7.075C4.675,-6.652 5.625,-5.916 6.28,-4.871C6.936,-3.825 7.264,-2.612 7.264,-1.239L7.264,1.203C7.264,2.176 6.778,2.664 5.805,2.664C4.811,2.664 4.313,2.176 4.313,1.203" style="fill:rgb(125,149,125);fill-rule:nonzero;"/>
            </g>
        </g>
        <g transform="matrix(4.16667,0,0,4.16667,0,0)">
            <g transform="matrix(1,0,0,1,784.503,536.795)">
                <path d="M0,12.148C1.479,10.573 2.22,8.547 2.22,6.072C2.22,3.599 1.479,1.575 0,0.001C-1.482,-1.574 -3.596,-2.364 -6.345,-2.364L-13.926,-2.364C-16.675,-2.364 -18.784,-1.574 -20.252,0.001C-21.724,1.575 -22.457,3.599 -22.457,6.072C-22.457,8.547 -21.724,10.573 -20.252,12.148C-18.784,13.723 -16.675,14.512 -13.926,14.512L-6.345,14.512C-3.596,14.512 -1.482,13.723 0,12.148M-6.058,-5.028C-2.465,-5.028 0.305,-3.985 2.251,-1.904C4.197,0.179 5.17,2.84 5.17,6.072C5.17,9.309 4.197,11.967 2.251,14.05C0.305,16.133 -2.465,17.176 -6.058,17.176L-14.21,17.176C-17.805,17.176 -20.575,16.133 -22.521,14.05C-24.467,11.967 -25.438,9.309 -25.438,6.072C-25.438,2.84 -24.467,0.179 -22.521,-1.904C-20.575,-3.985 -17.805,-5.028 -14.21,-5.028L-6.058,-5.028Z" style="fill:rgb(125,149,125);fill-rule:nonzero;"/>
            </g>
        </g>
        <g transform="matrix(4.16667,0,0,4.16667,0,0)">
            <g transform="matrix(1,0,0,1,799.885,541.537)">
                <path d="M0,2.664C-2.008,2.664 -3.557,2.083 -4.646,0.919C-5.735,-0.245 -6.28,-1.734 -6.28,-3.554C-6.28,-5.371 -5.735,-6.863 -4.646,-8.025C-3.557,-9.186 -2.008,-9.77 0,-9.77L19.95,-9.77C20.838,-9.77 21.282,-9.326 21.282,-8.438C21.282,-7.55 20.838,-7.106 19.95,-7.106L0.287,-7.106C-0.878,-7.106 -1.766,-6.778 -2.377,-6.123C-2.992,-5.467 -3.299,-4.61 -3.299,-3.554C-3.299,-2.496 -2.986,-1.639 -2.362,-0.983C-1.74,-0.328 -0.857,-0.002 0.287,-0.002L15.764,-0.002C17.772,-0.002 19.321,0.581 20.41,1.743C21.499,2.907 22.044,4.396 22.044,6.216C22.044,8.036 21.499,9.525 20.41,10.689C19.321,11.851 17.772,12.434 15.764,12.434L-4.917,12.434C-5.826,12.434 -6.28,11.99 -6.28,11.102C-6.28,10.214 -5.826,9.77 -4.917,9.77L15.48,9.77C16.641,9.77 17.529,9.44 18.143,8.784C18.755,8.128 19.062,7.274 19.062,6.216C19.062,5.16 18.75,4.303 18.128,3.647C17.503,2.992 16.621,2.664 15.48,2.664L0,2.664Z" style="fill:rgb(125,149,125);fill-rule:nonzero;"/>
            </g>
        </g>
        <g transform="matrix(4.16667,0,0,4.16667,0,0)">
            <g opacity="0.320007">
                <g transform="matrix(1,0,0,1,209.677,218.404)">
                    <path d="M0,108.499C0.904,74.935 42.205,5.749 79.095,4.755C85.077,4.594 90.923,0.16 96.841,0C48.072,1.313 1.417,31.224 0,83.85C0.043,82.237 -0.051,85.726 0,83.85L0,108.499Z" style="fill:rgb(163,161,161);fill-rule:nonzero;"/>
                </g>
                <g transform="matrix(1,0,0,1,294.038,323.295)">
                    <path d="M0,-102.569C-2.515,-102.233 -5.027,-101.817 -7.518,-101.321C-6.778,-101.392 -6.041,-101.437 -5.303,-101.458C-3.55,-101.504 -1.795,-101.955 0,-102.569M-83.039,-21.023L-83.039,-12.177C-74.55,-43.106 -46.936,-87.389 -17.978,-98.738C-52.75,-88.426 -81.93,-61.935 -83.039,-21.023M-83.039,3.643L-85.683,3.607L-85.684,-20.991C-85.684,-21.021 -85.683,-21.05 -85.683,-21.076L-85.683,-21.077C-85.683,-21.08 -85.683,-21.082 -85.681,-21.086C-85.68,-21.139 -85.679,-21.196 -85.677,-21.249L-85.67,-21.512C-83.96,-75.422 -35.105,-104.922 12.417,-106.211C12.426,-106.211 12.435,-106.211 12.444,-106.212L12.515,-103.569L12.507,-103.569C9.788,-103.494 7.042,-102.424 4.133,-101.293C1.116,-100.117 -2.003,-98.902 -5.231,-98.815C-40.55,-97.863 -82.1,-31.273 -83.039,3.643" style="fill:rgb(39,80,38);fill-rule:nonzero;"/>
                </g>
            </g>
        </g>
        <g transform="matrix(4.16667,0,0,4.16667,0,0)">
            <g opacity="0.320007">
                <g>
                    <clipPath id="_clip1">
                        <rect x="288.547" y="217.08" width="93.134" height="77.152" clip-rule="nonzero"/>
                    </clipPath>
                    <g clip-path="url(#_clip1)">
                        <g transform="matrix(1,0,0,1,380.347,219.805)">
                            <path d="M0,72.625C-1.109,31.443 -32.833,-0.292 -74.026,-1.401C-79.929,-1.56 -82.771,3.102 -88.597,2.945C-47.415,4.054 -1.109,31.432 0,72.625C-0.035,71.332 0.042,74.185 0,72.625" style="fill:rgb(163,161,161);fill-rule:nonzero;"/>
                        </g>
                        <g transform="matrix(1,0,0,1,296.991,288.855)">
                            <path d="M0,-66.468C30.621,-63.297 61.553,-47.497 76.109,-24.122C65.077,-50.285 39.783,-68.31 9.294,-69.129C6.676,-69.19 3.842,-68.054 0.905,-66.841C0.604,-66.717 0.302,-66.592 0,-66.468M-0.106,-69.283C2.956,-70.55 6.098,-71.845 9.366,-71.772C51.059,-70.65 83.374,-38.446 84.667,3.197L84.668,3.197L84.677,3.539L84.679,3.607C84.68,3.637 84.68,3.664 84.681,3.689L84.681,3.721L84.69,4.015L84.675,4.016C84.588,5.162 83.858,5.364 83.405,5.377L83.353,5.377C82.408,5.377 82.146,4.644 82.069,4.087L82.048,4.087L82.037,3.674C82.035,3.652 82.035,3.63 82.034,3.611L82.034,3.61L82.034,3.603C80.973,-35.629 34.397,-63.218 -8.444,-64.375" style="fill:rgb(39,80,38);fill-rule:nonzero;"/>
                        </g>
                    </g>
                </g>
            </g>
        </g>
        <g transform="matrix(4.16667,0,0,4.16667,0,0)">
            <g transform="matrix(1,0,0,1,0,269.959)">
                <path d="M20.204,174.555L182.055,174.555L182.055,150.766L20.204,150.766L20.204,174.555ZM184.699,177.198L17.562,177.198L17.562,148.123L184.699,148.123L184.699,177.198Z" style="fill:rgb(125,149,125);fill-rule:nonzero;"/>
            </g>
        </g>
        <g transform="matrix(4.16667,0,0,4.16667,0,0)">
            <g transform="matrix(1,0,0,1,0,269.959)">
                <path d="M649.215,174.555L811.066,174.555L811.066,150.766L649.215,150.766L649.215,174.555ZM813.71,177.198L646.573,177.198L646.573,148.123L813.71,148.123L813.71,177.198Z" style="fill:rgb(125,149,125);fill-rule:nonzero;"/>
            </g>
        </g>
        <g transform="matrix(4.16667,0,0,4.16667,0,0)">
            <g transform="matrix(1,0,0,1,184.698,193.398)">
                <path d="M0,251.14L23.657,251.14L23.657,0.004L0,0L0,251.14ZM26.3,253.759L-2.643,253.759L-2.643,-2.619L26.3,-2.615L26.3,253.759Z" style="fill:rgb(125,149,125);fill-rule:nonzero;"/>
            </g>
        </g>
        <g transform="matrix(4.16667,0,0,4.16667,0,0)">
            <g transform="matrix(1,0,0,1,0,-184.779)">
                <path d="M210.633,401.858L379.388,401.858L379.388,378.201L210.633,378.201L210.633,401.858ZM381.681,404.501L208.34,404.501L208.34,375.558L381.681,375.558L381.681,404.501Z" style="fill:rgb(125,149,125);fill-rule:nonzero;"/>
            </g>
        </g>
        <g transform="matrix(4.16667,0,0,4.16667,0,0)">
            <g transform="matrix(1,0,0,1,0,-103.895)">
                <path d="M381.823,548.409L405.48,548.409L405.48,150.767L381.823,150.767L381.823,548.409ZM408.123,551.052L379.18,551.052L379.18,148.123L408.123,148.123L408.123,551.052Z" style="fill:rgb(125,149,125);fill-rule:nonzero;"/>
            </g>
        </g>
        <g transform="matrix(4.16667,0,0,4.16667,0,0)">
            <g transform="matrix(1,0,0,1,0,-477.879)">
                <path d="M408.123,548.407L620.272,548.407L620.272,524.75L408.123,524.75L408.123,548.407ZM622.915,551.051L405.48,551.051L405.48,522.108L622.915,522.108L622.915,551.051Z" style="fill:rgb(125,149,125);fill-rule:nonzero;"/>
            </g>
        </g>
        <g transform="matrix(4.16667,0,0,4.16667,0,0)">
            <g transform="matrix(1,0,0,1,0,-103.895)">
                <path d="M622.915,548.409L646.572,548.409L646.572,150.767L622.915,150.767L622.915,548.409ZM649.215,551.052L620.272,551.052L620.272,148.123L649.215,148.123L649.215,551.052Z" style="fill:rgb(125,149,125);fill-rule:nonzero;"/>
            </g>
        </g>
        <g transform="matrix(4.16667,0,0,4.16667,0,0)">
            <g transform="matrix(1,0,0,1,0,-211.078)">
                <path d="M483.531,445.469L568.113,445.469L568.113,360.887L483.531,360.887L483.531,445.469ZM570.756,448.113L480.888,448.113L480.888,358.245L570.756,358.245L570.756,448.113Z" style="fill:rgb(125,149,125);fill-rule:nonzero;"/>
            </g>
        </g>
        <g transform="matrix(4.16667,0,0,4.16667,0,0)">
            <g transform="matrix(1,0,0,1,0,-211.079)">
                <path d="M498.482,430.519L553.16,430.519L553.16,375.841L498.482,375.841L498.482,430.519ZM555.803,433.162L495.838,433.162L495.838,373.197L555.803,373.197L555.803,433.162Z" style="fill:rgb(125,149,125);fill-rule:nonzero;"/>
            </g>
        </g>
        <g transform="matrix(4.16667,0,0,4.16667,0,0)">
            <g transform="matrix(-1,-0,-0,1,1051.64,-211.078)">
                <rect x="498.482" y="375.84" width="54.678" height="54.678" style="fill:white;"/>
            </g>
        </g>
    </g>
</svg>
