<svg clip-rule="evenodd" fill-rule="evenodd" stroke-miterlimit="1.41421" viewBox="0 0 3362 2119" xmlns="http://www.w3.org/2000/svg"><path d="m18.883 149.443h164.494v26.432h-164.494z" fill="#a3a1a1" fill-opacity=".320007" transform="matrix(4.16667 0 0 -4.16667 -73.174226 2290.54818)"/><path d="m183.377 149.443h26.3v253.736h-26.3z" fill="#a3a1a1" fill-opacity=".320007" transform="matrix(4.16667 0 0 -4.16667 -73.175059 2290.54818)"/><path d="m800.41730654 610.62960293h711.24223566v109.583421h-711.24223566z" fill="#a3a1a1" fill-opacity=".320007" stroke-width="4.16667"/><path d="m380.502 149.443h26.3v400.286h-26.3z" fill="#a3a1a1" fill-opacity=".320007" transform="matrix(-4.16667 0 0 4.16667 3207.264941 -622.67582)"/><path d="m406.802 523.43h213.47v26.3h-213.47z" fill="#a3a1a1" fill-opacity=".320007" transform="matrix(4.16667 0 0 -4.16667 -73.175059 2290.54818)"/><path d="m2626.38543398 1557.72784481h685.39221498v110.13342144h-685.39221498z" fill="#a3a1a1" fill-opacity=".320007" stroke-width="4.16667"/><path d="m621.594 149.444h26.3v400.286h-26.3z" fill="#a3a1a1" fill-opacity=".320007" transform="matrix(-4.16667 0 0 4.16667 5216.374941 -622.68382)"/><g fill-rule="nonzero"><path d="m0 7.408v-3.707c0-6.019-1.788-10.944-5.363-14.775-3.576-3.83-8.707-5.751-15.394-5.751h-15.74c-6.688 0-11.82 1.921-15.395 5.751-3.576 3.831-5.362 8.756-5.362 14.775v3.707zm-60.881 23.303c-2.367 0-3.549-1.182-3.549-3.551v-23.459c0-7.867 2.364-14.336 7.098-19.405 4.733-5.065 11.471-7.599 20.216-7.599h16.977c8.744 0 15.484 2.534 20.216 7.599 4.733 5.069 7.1 11.538 7.1 19.405v23.459c0 2.369-1.185 3.551-3.55 3.551-2.419 0-3.627-1.182-3.627-3.551v-13.505h-57.254v13.505c0 2.369-1.21 3.551-3.627 3.551" fill="#fff" transform="matrix(4.16667 0 0 4.16667 270.219941 1853.82818)"/><path d="m0-41.057c-6.688 0-11.819 1.92-15.394 5.751-3.577 3.831-5.363 8.756-5.363 14.775s1.786 10.944 5.363 14.78c3.575 3.831 8.706 5.746 15.394 5.746h27.624c4.063 0 6.096-2.029 6.096-6.097v-13.5c0-2.369 1.183-3.552 3.549-3.552 2.417 0 3.627 1.183 3.627 3.552v14.811c0 3.604-.977 6.381-2.933 8.338-1.955 1.956-4.783 2.932-8.487 2.932h-30.17c-8.747 0-15.485-2.535-20.218-7.604-4.733-5.065-7.098-11.533-7.098-19.406 0-7.868 2.365-14.336 7.098-19.406 4.733-5.064 11.471-7.599 20.218-7.599h38.273c2.211 0 3.317 1.079 3.317 3.242 0 2.158-1.106 3.237-3.317 3.237z" fill="#fff" transform="matrix(4.16667 0 0 4.16667 460.237941 1954.79818)"/><path d="m0-46.921c0-2.364 1.208-3.547 3.627-3.547 2.365 0 3.549 1.183 3.549 3.547v46.916c0 2.37-1.184 3.552-3.549 3.552-2.419 0-3.627-1.182-3.627-3.552z" fill="#fff" transform="matrix(4.16667 0 0 4.16667 679.500941 1967.00818)"/><path d="m0 7.408v-3.707c0-6.019-1.788-10.944-5.363-14.775-3.576-3.83-8.707-5.751-15.394-5.751h-15.74c-6.688 0-11.82 1.921-15.395 5.751-3.576 3.831-5.362 8.756-5.362 14.775v3.707zm-60.881 23.303c-2.367 0-3.549-1.182-3.549-3.551v-23.459c0-7.867 2.364-14.336 7.098-19.405 4.733-5.065 11.471-7.599 20.216-7.599h16.977c8.744 0 15.484 2.534 20.216 7.599 4.733 5.069 7.1 11.538 7.1 19.405v23.459c0 2.369-1.185 3.551-3.55 3.551-2.419 0-3.627-1.182-3.627-3.551v-13.505h-57.254v13.505c0 2.369-1.21 3.551-3.627 3.551" fill="#fff" transform="matrix(4.16667 0 0 4.16667 1028.334941 1853.82818)"/><path d="m0 6.479c-4.888 0-8.656-1.415-11.305-4.244s-3.973-6.453-3.973-10.882c0-4.419 1.324-8.048 3.973-10.877s6.417-4.244 11.305-4.244h48.535c2.16 0 3.242 1.079 3.242 3.242 0 2.158-1.082 3.237-3.242 3.237h-47.841c-2.83 0-4.99.8-6.481 2.395-1.493 1.596-2.238 3.676-2.238 6.247 0 2.576.759 4.657 2.277 6.252 1.516 1.595 3.665 2.395 6.442 2.395h37.655c4.888 0 8.655 1.415 11.305 4.244 2.649 2.829 3.974 6.453 3.974 10.877s-1.325 8.053-3.974 10.882c-2.65 2.829-6.417 4.244-11.305 4.244h-50.309c-2.214 0-3.318-1.084-3.318-3.242 0-2.163 1.104-3.242 3.318-3.242h49.615c2.829 0 4.99-.795 6.483-2.39 1.49-1.596 2.236-3.676 2.236-6.252 0-2.571-.758-4.657-2.275-6.252-1.519-1.59-3.665-2.39-6.444-2.39z" fill="#fff" transform="matrix(4.16667 0 0 4.16667 1165.304941 1855.75818)"/><path d="m0-46.921c0-2.364 1.208-3.547 3.627-3.547 2.365 0 3.549 1.183 3.549 3.547v46.916c0 2.37-1.184 3.552-3.549 3.552-2.419 0-3.627-1.182-3.627-3.552z" fill="#fff" transform="matrix(4.16667 0 0 4.16667 1435.694941 1967.00818)"/><path d="m0 50.927-34.724-46.529c-.669-.821-1.003-1.621-1.003-2.396 0-2.364 1.189-3.546 3.567-3.546 1.107 0 2.036.547 2.791 1.636l32.454 44.005 32.631-44.242c.783-.935 1.725-1.399 2.822-1.399 2.341 0 3.513 1.13 3.513 3.391 0 .723-.307 1.467-.924 2.241l-34.955 46.839c-.772 1.027-1.802 1.544-3.087 1.544-1.286 0-2.313-.517-3.085-1.544" fill="#fff" transform="matrix(4.16667 0 0 4.16667 1859.754941 1763.15818)"/><path d="m0-46.921c0-2.364 1.208-3.547 3.629-3.547 2.365 0 3.547 1.183 3.547 3.547v46.916c0 2.37-1.182 3.552-3.547 3.552-2.421 0-3.629-1.182-3.629-3.552z" fill="#fff" transform="matrix(4.16667 0 0 4.16667 2068.084941 1967.00818)"/><path d="m0 54.015c-8.748 0-15.485-2.535-20.219-7.604-4.731-5.065-7.098-11.533-7.098-19.406v-23.458c0-2.365 1.182-3.547 3.549-3.547 2.419 0 3.627 1.182 3.627 3.547v23.458c0 6.019 1.788 10.944 5.363 14.78 3.575 3.831 8.707 5.746 15.395 5.746h32.33c2.212 0 3.319 1.079 3.319 3.242 0 2.158-1.107 3.242-3.319 3.242z" fill="#fff" transform="matrix(4.16667 0 0 4.16667 2262.284941 1756.72818)"/><path d="m0 54.015c-8.748 0-15.485-2.535-20.219-7.604-4.731-5.065-7.098-11.533-7.098-19.406v-23.458c0-2.365 1.182-3.547 3.549-3.547 2.419 0 3.627 1.182 3.627 3.547v23.458c0 6.019 1.788 10.944 5.363 14.78 3.575 3.831 8.707 5.746 15.395 5.746h32.33c2.212 0 3.319 1.079 3.319 3.242 0 2.158-1.107 3.242-3.319 3.242z" fill="#fff" transform="matrix(4.16667 0 0 4.16667 2551.964941 1756.72818)"/><path d="m0 7.408v-3.707c0-6.019-1.789-10.944-5.364-14.775-3.575-3.83-8.706-5.751-15.394-5.751h-15.741c-6.688 0-11.819 1.921-15.394 5.751-3.575 3.831-5.364 8.756-5.364 14.775v3.707zm-60.883 23.303c-2.367 0-3.55-1.182-3.55-3.551v-23.459c0-7.867 2.367-14.336 7.099-19.405 4.734-5.065 11.471-7.599 20.219-7.599h16.974c8.745 0 15.485 2.534 20.218 7.599 4.732 5.069 7.099 11.538 7.099 19.405v23.459c0 2.369-1.185 3.551-3.549 3.551-2.419 0-3.627-1.182-3.627-3.551v-13.505h-57.257v13.505c0 2.369-1.208 3.551-3.626 3.551" fill="#fff" transform="matrix(4.16667 0 0 4.16667 3001.114941 1853.82818)"/><path d="m0 6.479c-4.886 0-8.655-1.415-11.303-4.244-2.651-2.829-3.975-6.453-3.975-10.882 0-4.419 1.324-8.048 3.975-10.877 2.648-2.829 6.417-4.244 11.303-4.244h48.537c2.161 0 3.24 1.079 3.24 3.242 0 2.158-1.079 3.237-3.24 3.237h-47.843c-2.829 0-4.989.8-6.481 2.395-1.492 1.596-2.238 3.676-2.238 6.247 0 2.576.759 4.657 2.277 6.252 1.517 1.595 3.665 2.395 6.442 2.395h37.658c4.886 0 8.655 1.415 11.303 4.244s3.975 6.453 3.975 10.877-1.327 8.053-3.975 10.882-6.417 4.244-11.303 4.244h-50.311c-2.212 0-3.319-1.084-3.319-3.242 0-2.163 1.107-3.242 3.319-3.242h49.617c2.826 0 4.987-.795 6.481-2.39 1.492-1.596 2.238-3.676 2.238-6.252 0-2.571-.761-4.657-2.277-6.252-1.517-1.59-3.665-2.39-6.442-2.39z" fill="#fff" transform="matrix(4.16667 0 0 4.16667 3138.074941 1855.75818)"/><path d="m0-16.876h-18.43v9.101h18.43c1.479 0 2.61-.425 3.392-1.282.782-.855 1.174-1.949 1.174-3.281 0-1.335-.392-2.421-1.174-3.268s-1.913-1.27-3.392-1.27m-21.38-1.205c0-.974.498-1.459 1.492-1.459h20.141c2.326 0 4.117.671 5.377 2.014 1.257 1.342 1.887 3.071 1.887 5.188 0 2.111-.63 3.846-1.887 5.198-1.26 1.356-3.051 2.032-5.377 2.032h-18.683v6.311c0 .973-.485 1.461-1.458 1.461-.994 0-1.492-.488-1.492-1.461z" fill="#fff" transform="matrix(4.16667 0 0 4.16667 2762.764941 2107.31818)"/><path d="m0 3.04v-1.523c0-2.473-.736-4.496-2.204-6.071-1.472-1.575-3.581-2.364-6.33-2.364h-6.468c-2.749 0-4.861.789-6.329 2.364-1.469 1.575-2.205 3.598-2.205 6.071v1.523zm-25.025 9.582c-.973 0-1.461-.488-1.461-1.461v-9.644c0-3.232.973-5.893 2.919-7.976 1.944-2.08 4.714-3.123 8.309-3.123h6.98c3.593 0 6.363 1.043 8.309 3.123 1.946 2.083 2.919 4.744 2.919 7.976v9.644c0 .973-.488 1.461-1.461 1.461-.993 0-1.489-.488-1.489-1.461v-5.55h-23.536v5.55c0 .973-.498 1.461-1.489 1.461" fill="#fff" transform="matrix(4.16667 0 0 4.16667 2918.974941 2065.82818)"/><path d="m0-16.876h-18.998v8.503h18.998c1.396 0 2.462-.398 3.203-1.193.741-.79 1.11-1.812 1.11-3.061 0-1.244-.369-2.267-1.11-3.059s-1.807-1.19-3.203-1.19m4.313 18.079v-2.093c0-1.459-.423-2.631-1.267-3.519-.847-.89-2.083-1.334-3.712-1.334h-18.332v6.946c0 .973-.488 1.461-1.461 1.461-.994 0-1.489-.488-1.489-1.461v-19.284c0-.974.495-1.459 1.489-1.459h21.22c2.094 0 3.702.599 4.822 1.792 1.12 1.195 1.681 2.743 1.681 4.646 0 1.44-.328 2.692-.984 3.758-.655 1.069-1.605 1.825-2.855 2.269 1.25.423 2.2 1.159 2.855 2.204.656 1.046.984 2.259.984 3.632v2.442c0 .973-.486 1.461-1.459 1.461-.994 0-1.492-.488-1.492-1.461" fill="#fff" transform="matrix(4.16667 0 0 4.16667 3043.464941 2107.31818)"/><path d="m0 12.148c1.479-1.575 2.22-3.601 2.22-6.076 0-2.473-.741-4.497-2.22-6.071-1.482-1.575-3.596-2.365-6.345-2.365h-7.581c-2.749 0-4.858.79-6.326 2.365-1.472 1.574-2.205 3.598-2.205 6.071 0 2.475.733 4.501 2.205 6.076 1.468 1.575 3.577 2.364 6.326 2.364h7.581c2.749 0 4.863-.789 6.345-2.364m-6.058-17.176c3.593 0 6.363 1.043 8.309 3.124 1.946 2.083 2.919 4.744 2.919 7.976 0 3.237-.973 5.895-2.919 7.978-1.946 2.083-4.716 3.126-8.309 3.126h-8.152c-3.595 0-6.365-1.043-8.311-3.126s-2.917-4.741-2.917-7.978c0-3.232.971-5.893 2.917-7.976 1.946-2.081 4.716-3.124 8.311-3.124z" fill="#fff" transform="matrix(4.16667 0 0 4.16667 3195.594941 2046.85818)"/><path d="m0 2.664c-2.008 0-3.557-.581-4.646-1.745s-1.634-2.653-1.634-4.473c0-1.817.545-3.309 1.634-4.471 1.089-1.161 2.638-1.745 4.646-1.745h19.95c.888 0 1.332.444 1.332 1.332s-.444 1.332-1.332 1.332h-19.663c-1.165 0-2.053.328-2.664.983-.615.656-.922 1.513-.922 2.569 0 1.058.313 1.915.937 2.571.622.655 1.505.981 2.649.981h15.477c2.008 0 3.557.583 4.646 1.745 1.089 1.164 1.634 2.653 1.634 4.473s-.545 3.309-1.634 4.473c-1.089 1.162-2.638 1.745-4.646 1.745h-20.681c-.909 0-1.363-.444-1.363-1.332s.454-1.332 1.363-1.332h20.397c1.161 0 2.049-.33 2.663-.986.612-.656.919-1.51.919-2.568 0-1.056-.312-1.913-.934-2.569-.625-.655-1.507-.983-2.648-.983z" fill="#fff" transform="matrix(4.16667 0 0 4.16667 3259.684941 2066.61818)"/><g opacity=".320007"><path d="m0 108.499c.904-33.564 42.205-102.75 79.095-103.744 5.982-.161 11.828-4.595 17.746-4.755-48.769 1.313-95.424 31.224-96.841 83.85.043-1.613-.051 1.876 0 0z" fill="#a3a1a1" transform="matrix(4.16667 0 0 4.16667 800.47980659 720.22557468)"/><path d="m0-102.569c-2.515.336-5.027.752-7.518 1.248.74-.071 1.477-.116 2.215-.137 1.753-.046 3.508-.497 5.303-1.111m-83.039 81.546v8.846c8.489-30.929 36.103-75.212 65.061-86.561-34.772 10.312-63.952 36.803-65.061 77.715m0 24.666-2.644-.036-.001-24.598c0-.03.001-.059.001-.085v-.001c0-.003 0-.005.002-.009.001-.053.002-.11.004-.163l.007-.263c1.71-53.91 50.565-83.41 98.087-84.699.009 0 .018 0 .027-.001l.071 2.643h-.008c-2.719.075-5.465 1.145-8.374 2.276-3.017 1.176-6.136 2.391-9.364 2.478-35.319.952-76.869 67.542-77.808 102.458" fill="#275026" transform="matrix(4.16667 0 0 4.16667 1151.98425446 1157.27175765)"/></g><g opacity=".320007"><path d="m0 72.625c-1.109-41.182-32.833-72.917-74.026-74.026-5.903-.159-8.745 4.503-14.571 4.346 41.182 1.109 87.488 28.487 88.597 69.68-.035-1.293.042 1.56 0 0" fill="#a3a1a1" transform="matrix(4.16667 0 0 4.16667 1511.60537549 726.06307935)"/><path d="m0-66.468c30.621 3.171 61.553 18.971 76.109 42.346-11.032-26.163-36.326-44.188-66.815-45.007-2.618-.061-5.452 1.075-8.389 2.288-.301.124-.603.249-.905.373m-.106-2.815c3.062-1.267 6.204-2.562 9.472-2.489 41.693 1.122 74.008 33.326 75.301 74.969h.001l.009.342.002.068c.001.03.001.057.002.082v.032l.009.294-.015.001c-.087 1.146-.817 1.348-1.27 1.361h-.052c-.945 0-1.207-.733-1.284-1.29h-.021l-.011-.413c-.002-.022-.002-.044-.003-.063v-.001-.007c-1.061-39.232-47.637-66.821-90.478-67.978" fill="#275026" transform="matrix(4.16667 0 0 4.16667 1164.28843097 1013.77164285)"/></g><path d="m20.204 174.555h161.851v-23.789h-161.851zm164.495 2.643h-167.137v-29.075h167.137z" fill="#7d957d" transform="matrix(4.16667 0 0 4.16667 -73.175059 935.03818)"/><path d="m649.215 174.555h161.851v-23.789h-161.851zm164.495 2.643h-167.137v-29.075h167.137z" fill="#7d957d" transform="matrix(4.16667 0 0 4.16667 -73.175059 935.03818)"/><path d="m0 251.14h23.657v-251.136l-23.657-.004zm26.3 2.619h-28.943v-256.378l28.943.004z" fill="#7d957d" transform="matrix(4.16667 0 0 4.16667 696.400941 616.03418)"/><path d="m210.633 401.858h168.755v-23.657h-168.755zm171.048 2.643h-173.341v-28.943h173.341z" fill="#7d957d" transform="matrix(4.16667 0 0 4.16667 -73.175059 -959.70482)"/><path d="m483.531 445.469h84.582v-84.582h-84.582zm87.225 2.644h-89.868v-89.868h89.868z" fill="#7d957d" transform="matrix(4.16667 0 0 4.16667 -72.991746 -1069.05182)"/></g><path d="m483.531 445.469h84.582v-84.582h-84.582zm87.225 2.644h-89.868v-89.868h89.868z" fill="none" stroke="#a3a1a1" stroke-opacity=".407843" stroke-width="11.39" transform="matrix(3.49907 0 0 3.52649 278.075941 -811.51782)"/><path d="m498.482 430.519h54.678v-54.678h-54.678zm57.321 2.643h-59.965v-59.965h59.965z" fill="#7d957d" fill-rule="nonzero" transform="matrix(4.33728 0 0 4.31593 -163.765859 -1129.28582)"/></svg>